<svg width="773" height="766" viewBox="0 0 773 766" fill="none" xmlns="http://www.w3.org/2000/svg">
<path d="M4.04297 646.406H7.33008L15.7148 667.271L24.082 646.406H27.3867L16.9805 672H14.4141L4.04297 646.406ZM2.9707 646.406H5.87109L6.3457 662.016V672H2.9707V646.406ZM25.541 646.406H28.4414V672H25.0664V662.016L25.541 646.406ZM45.123 668.748V658.957C45.123 658.207 44.9707 657.557 44.666 657.006C44.373 656.443 43.9277 656.01 43.3301 655.705C42.7324 655.4 41.9941 655.248 41.1152 655.248C40.2949 655.248 39.5742 655.389 38.9531 655.67C38.3438 655.951 37.8633 656.32 37.5117 656.777C37.1719 657.234 37.002 657.727 37.002 658.254H33.75C33.75 657.574 33.9258 656.9 34.2773 656.232C34.6289 655.564 35.1328 654.961 35.7891 654.422C36.457 653.871 37.2539 653.438 38.1797 653.121C39.1172 652.793 40.1602 652.629 41.3086 652.629C42.6914 652.629 43.9102 652.863 44.9648 653.332C46.0312 653.801 46.8633 654.51 47.4609 655.459C48.0703 656.396 48.375 657.574 48.375 658.992V667.852C48.375 668.484 48.4277 669.158 48.5332 669.873C48.6504 670.588 48.8203 671.203 49.043 671.719V672H45.6504C45.4863 671.625 45.3574 671.127 45.2637 670.506C45.1699 669.873 45.123 669.287 45.123 668.748ZM45.6855 660.469L45.7207 662.754H42.4336C41.5078 662.754 40.6816 662.83 39.9551 662.982C39.2285 663.123 38.6191 663.34 38.127 663.633C37.6348 663.926 37.2598 664.295 37.002 664.74C36.7441 665.174 36.6152 665.684 36.6152 666.27C36.6152 666.867 36.75 667.412 37.0195 667.904C37.2891 668.396 37.6934 668.789 38.2324 669.082C38.7832 669.363 39.457 669.504 40.2539 669.504C41.25 669.504 42.1289 669.293 42.8906 668.871C43.6523 668.449 44.2559 667.934 44.7012 667.324C45.1582 666.715 45.4043 666.123 45.4395 665.549L46.8281 667.113C46.7461 667.605 46.5234 668.15 46.1602 668.748C45.7969 669.346 45.3105 669.92 44.7012 670.471C44.1035 671.01 43.3887 671.461 42.5566 671.824C41.7363 672.176 40.8105 672.352 39.7793 672.352C38.4902 672.352 37.3594 672.1 36.3867 671.596C35.4258 671.092 34.6758 670.418 34.1367 669.574C33.6094 668.719 33.3457 667.764 33.3457 666.709C33.3457 665.689 33.5449 664.793 33.9434 664.02C34.3418 663.234 34.916 662.584 35.666 662.068C36.416 661.541 37.3184 661.143 38.373 660.873C39.4277 660.604 40.6055 660.469 41.9062 660.469H45.6855ZM65.127 667.605V652.98H68.3965V672H65.2852L65.127 667.605ZM65.7422 663.598L67.0957 663.562C67.0957 664.828 66.9609 666 66.6914 667.078C66.4336 668.145 66.0117 669.07 65.4258 669.855C64.8398 670.641 64.0723 671.256 63.123 671.701C62.1738 672.135 61.0195 672.352 59.6602 672.352C58.7344 672.352 57.8848 672.217 57.1113 671.947C56.3496 671.678 55.6934 671.262 55.1426 670.699C54.5918 670.137 54.1641 669.404 53.8594 668.502C53.5664 667.6 53.4199 666.516 53.4199 665.25V652.98H56.6719V665.285C56.6719 666.141 56.7656 666.85 56.9531 667.412C57.1523 667.963 57.416 668.402 57.7441 668.73C58.084 669.047 58.459 669.27 58.8691 669.398C59.291 669.527 59.7246 669.592 60.1699 669.592C61.5527 669.592 62.6484 669.328 63.457 668.801C64.2656 668.262 64.8457 667.541 65.1973 666.639C65.5605 665.725 65.7422 664.711 65.7422 663.598ZM79.1367 669.064L84.3398 652.98H87.6621L80.8242 672H78.6445L79.1367 669.064ZM74.7949 652.98L80.1562 669.152L80.5254 672H78.3457L71.4551 652.98H74.7949ZM98.4375 672.352C97.1133 672.352 95.9121 672.129 94.834 671.684C93.7676 671.227 92.8477 670.588 92.0742 669.768C91.3125 668.947 90.7266 667.975 90.3164 666.85C89.9062 665.725 89.7012 664.494 89.7012 663.158V662.42C89.7012 660.873 89.9297 659.496 90.3867 658.289C90.8438 657.07 91.4648 656.039 92.25 655.195C93.0352 654.352 93.9258 653.713 94.9219 653.279C95.918 652.846 96.9492 652.629 98.0156 652.629C99.375 652.629 100.547 652.863 101.531 653.332C102.527 653.801 103.342 654.457 103.975 655.301C104.607 656.133 105.076 657.117 105.381 658.254C105.686 659.379 105.838 660.609 105.838 661.945V663.404H91.6348V660.75H102.586V660.504C102.539 659.66 102.363 658.84 102.059 658.043C101.766 657.246 101.297 656.59 100.652 656.074C100.008 655.559 99.1289 655.301 98.0156 655.301C97.2773 655.301 96.5977 655.459 95.9766 655.775C95.3555 656.08 94.8223 656.537 94.377 657.146C93.9316 657.756 93.5859 658.5 93.3398 659.379C93.0938 660.258 92.9707 661.271 92.9707 662.42V663.158C92.9707 664.061 93.0938 664.91 93.3398 665.707C93.5977 666.492 93.9668 667.184 94.4473 667.781C94.9395 668.379 95.5312 668.848 96.2227 669.188C96.9258 669.527 97.7227 669.697 98.6133 669.697C99.7617 669.697 100.734 669.463 101.531 668.994C102.328 668.525 103.025 667.898 103.623 667.113L105.592 668.678C105.182 669.299 104.66 669.891 104.027 670.453C103.395 671.016 102.615 671.473 101.689 671.824C100.775 672.176 99.6914 672.352 98.4375 672.352ZM120.709 666.955C120.709 666.486 120.604 666.053 120.393 665.654C120.193 665.244 119.777 664.875 119.145 664.547C118.523 664.207 117.586 663.914 116.332 663.668C115.277 663.445 114.322 663.182 113.467 662.877C112.623 662.572 111.902 662.203 111.305 661.77C110.719 661.336 110.268 660.826 109.951 660.24C109.635 659.654 109.477 658.969 109.477 658.184C109.477 657.434 109.641 656.725 109.969 656.057C110.309 655.389 110.783 654.797 111.393 654.281C112.014 653.766 112.758 653.361 113.625 653.068C114.492 652.775 115.459 652.629 116.525 652.629C118.049 652.629 119.35 652.898 120.428 653.438C121.506 653.977 122.332 654.697 122.906 655.6C123.48 656.49 123.768 657.48 123.768 658.57H120.516C120.516 658.043 120.357 657.533 120.041 657.041C119.736 656.537 119.285 656.121 118.688 655.793C118.102 655.465 117.381 655.301 116.525 655.301C115.623 655.301 114.891 655.441 114.328 655.723C113.777 655.992 113.373 656.338 113.115 656.76C112.869 657.182 112.746 657.627 112.746 658.096C112.746 658.447 112.805 658.764 112.922 659.045C113.051 659.314 113.273 659.566 113.59 659.801C113.906 660.023 114.352 660.234 114.926 660.434C115.5 660.633 116.232 660.832 117.123 661.031C118.682 661.383 119.965 661.805 120.973 662.297C121.98 662.789 122.73 663.393 123.223 664.107C123.715 664.822 123.961 665.689 123.961 666.709C123.961 667.541 123.785 668.303 123.434 668.994C123.094 669.686 122.596 670.283 121.939 670.787C121.295 671.279 120.521 671.666 119.619 671.947C118.729 672.217 117.727 672.352 116.613 672.352C114.938 672.352 113.52 672.053 112.359 671.455C111.199 670.857 110.32 670.084 109.723 669.135C109.125 668.186 108.826 667.184 108.826 666.129H112.096C112.143 667.02 112.4 667.729 112.869 668.256C113.338 668.771 113.912 669.141 114.592 669.363C115.271 669.574 115.945 669.68 116.613 669.68C117.504 669.68 118.248 669.562 118.846 669.328C119.455 669.094 119.918 668.771 120.234 668.361C120.551 667.951 120.709 667.482 120.709 666.955ZM139.307 666.955C139.307 666.486 139.201 666.053 138.99 665.654C138.791 665.244 138.375 664.875 137.742 664.547C137.121 664.207 136.184 663.914 134.93 663.668C133.875 663.445 132.92 663.182 132.064 662.877C131.221 662.572 130.5 662.203 129.902 661.77C129.316 661.336 128.865 660.826 128.549 660.24C128.232 659.654 128.074 658.969 128.074 658.184C128.074 657.434 128.238 656.725 128.566 656.057C128.906 655.389 129.381 654.797 129.99 654.281C130.611 653.766 131.355 653.361 132.223 653.068C133.09 652.775 134.057 652.629 135.123 652.629C136.646 652.629 137.947 652.898 139.025 653.438C140.104 653.977 140.93 654.697 141.504 655.6C142.078 656.49 142.365 657.48 142.365 658.57H139.113C139.113 658.043 138.955 657.533 138.639 657.041C138.334 656.537 137.883 656.121 137.285 655.793C136.699 655.465 135.979 655.301 135.123 655.301C134.221 655.301 133.488 655.441 132.926 655.723C132.375 655.992 131.971 656.338 131.713 656.76C131.467 657.182 131.344 657.627 131.344 658.096C131.344 658.447 131.402 658.764 131.52 659.045C131.648 659.314 131.871 659.566 132.188 659.801C132.504 660.023 132.949 660.234 133.523 660.434C134.098 660.633 134.83 660.832 135.721 661.031C137.279 661.383 138.562 661.805 139.57 662.297C140.578 662.789 141.328 663.393 141.82 664.107C142.312 664.822 142.559 665.689 142.559 666.709C142.559 667.541 142.383 668.303 142.031 668.994C141.691 669.686 141.193 670.283 140.537 670.787C139.893 671.279 139.119 671.666 138.217 671.947C137.326 672.217 136.324 672.352 135.211 672.352C133.535 672.352 132.117 672.053 130.957 671.455C129.797 670.857 128.918 670.084 128.32 669.135C127.723 668.186 127.424 667.184 127.424 666.129H130.693C130.74 667.02 130.998 667.729 131.467 668.256C131.936 668.771 132.51 669.141 133.189 669.363C133.869 669.574 134.543 669.68 135.211 669.68C136.102 669.68 136.846 669.562 137.443 669.328C138.053 669.094 138.516 668.771 138.832 668.361C139.148 667.951 139.307 667.482 139.307 666.955ZM158.467 667.605V652.98H161.736V672H158.625L158.467 667.605ZM159.082 663.598L160.436 663.562C160.436 664.828 160.301 666 160.031 667.078C159.773 668.145 159.352 669.07 158.766 669.855C158.18 670.641 157.412 671.256 156.463 671.701C155.514 672.135 154.359 672.352 153 672.352C152.074 672.352 151.225 672.217 150.451 671.947C149.689 671.678 149.033 671.262 148.482 670.699C147.932 670.137 147.504 669.404 147.199 668.502C146.906 667.6 146.76 666.516 146.76 665.25V652.98H150.012V665.285C150.012 666.141 150.105 666.85 150.293 667.412C150.492 667.963 150.756 668.402 151.084 668.73C151.424 669.047 151.799 669.27 152.209 669.398C152.631 669.527 153.064 669.592 153.51 669.592C154.893 669.592 155.988 669.328 156.797 668.801C157.605 668.262 158.186 667.541 158.537 666.639C158.9 665.725 159.082 664.711 159.082 663.598ZM169.945 655.969V672H166.693V652.98H169.857L169.945 655.969ZM175.887 652.875L175.869 655.898C175.6 655.84 175.342 655.805 175.096 655.793C174.861 655.77 174.592 655.758 174.287 655.758C173.537 655.758 172.875 655.875 172.301 656.109C171.727 656.344 171.24 656.672 170.842 657.094C170.443 657.516 170.127 658.02 169.893 658.605C169.67 659.18 169.523 659.812 169.453 660.504L168.539 661.031C168.539 659.883 168.65 658.805 168.873 657.797C169.107 656.789 169.465 655.898 169.945 655.125C170.426 654.34 171.035 653.73 171.773 653.297C172.523 652.852 173.414 652.629 174.445 652.629C174.68 652.629 174.949 652.658 175.254 652.717C175.559 652.764 175.77 652.816 175.887 652.875ZM179.666 668.133V670.752C179.666 671.818 179.396 672.943 178.857 674.127C178.318 675.322 177.562 676.318 176.59 677.115L174.744 675.832C175.119 675.316 175.436 674.789 175.693 674.25C175.951 673.723 176.145 673.172 176.273 672.598C176.414 672.035 176.484 671.438 176.484 670.805V668.133H179.666ZM18.4922 711.24V714H5.69531V711.24H18.4922ZM6.36328 688.406V714H2.9707V688.406H6.36328ZM21.0234 704.701V704.297C21.0234 702.926 21.2227 701.654 21.6211 700.482C22.0195 699.299 22.5938 698.273 23.3438 697.406C24.0938 696.527 25.002 695.848 26.0684 695.367C27.1348 694.875 28.3301 694.629 29.6543 694.629C30.9902 694.629 32.1914 694.875 33.2578 695.367C34.3359 695.848 35.25 696.527 36 697.406C36.7617 698.273 37.3418 699.299 37.7402 700.482C38.1387 701.654 38.3379 702.926 38.3379 704.297V704.701C38.3379 706.072 38.1387 707.344 37.7402 708.516C37.3418 709.688 36.7617 710.713 36 711.592C35.25 712.459 34.3418 713.139 33.2754 713.631C32.2207 714.111 31.0254 714.352 29.6895 714.352C28.3535 714.352 27.1523 714.111 26.0859 713.631C25.0195 713.139 24.1055 712.459 23.3438 711.592C22.5938 710.713 22.0195 709.688 21.6211 708.516C21.2227 707.344 21.0234 706.072 21.0234 704.701ZM24.2754 704.297V704.701C24.2754 705.65 24.3867 706.547 24.6094 707.391C24.832 708.223 25.166 708.961 25.6113 709.605C26.0684 710.25 26.6367 710.76 27.3164 711.135C27.9961 711.498 28.7871 711.68 29.6895 711.68C30.5801 711.68 31.3594 711.498 32.0273 711.135C32.707 710.76 33.2695 710.25 33.7148 709.605C34.1602 708.961 34.4941 708.223 34.7168 707.391C34.9512 706.547 35.0684 705.65 35.0684 704.701V704.297C35.0684 703.359 34.9512 702.475 34.7168 701.643C34.4941 700.799 34.1543 700.055 33.6973 699.41C33.252 698.754 32.6895 698.238 32.0098 697.863C31.3418 697.488 30.5566 697.301 29.6543 697.301C28.7637 697.301 27.9785 697.488 27.2988 697.863C26.6309 698.238 26.0684 698.754 25.6113 699.41C25.166 700.055 24.832 700.799 24.6094 701.643C24.3867 702.475 24.2754 703.359 24.2754 704.297ZM45.9492 694.98V714H42.6797V694.98H45.9492ZM42.4336 689.936C42.4336 689.408 42.5918 688.963 42.9082 688.6C43.2363 688.236 43.7168 688.055 44.3496 688.055C44.9707 688.055 45.4453 688.236 45.7734 688.6C46.1133 688.963 46.2832 689.408 46.2832 689.936C46.2832 690.439 46.1133 690.873 45.7734 691.236C45.4453 691.588 44.9707 691.764 44.3496 691.764C43.7168 691.764 43.2363 691.588 42.9082 691.236C42.5918 690.873 42.4336 690.439 42.4336 689.936ZM54.4219 697.969V714H51.1699V694.98H54.334L54.4219 697.969ZM60.3633 694.875L60.3457 697.898C60.0762 697.84 59.8184 697.805 59.5723 697.793C59.3379 697.77 59.0684 697.758 58.7637 697.758C58.0137 697.758 57.3516 697.875 56.7773 698.109C56.2031 698.344 55.7168 698.672 55.3184 699.094C54.9199 699.516 54.6035 700.02 54.3691 700.605C54.1465 701.18 54 701.812 53.9297 702.504L53.0156 703.031C53.0156 701.883 53.127 700.805 53.3496 699.797C53.584 698.789 53.9414 697.898 54.4219 697.125C54.9023 696.34 55.5117 695.73 56.25 695.297C57 694.852 57.8906 694.629 58.9219 694.629C59.1562 694.629 59.4258 694.658 59.7305 694.717C60.0352 694.764 60.2461 694.816 60.3633 694.875ZM70.9102 714.352C69.5859 714.352 68.3848 714.129 67.3066 713.684C66.2402 713.227 65.3203 712.588 64.5469 711.768C63.7852 710.947 63.1992 709.975 62.7891 708.85C62.3789 707.725 62.1738 706.494 62.1738 705.158V704.42C62.1738 702.873 62.4023 701.496 62.8594 700.289C63.3164 699.07 63.9375 698.039 64.7227 697.195C65.5078 696.352 66.3984 695.713 67.3945 695.279C68.3906 694.846 69.4219 694.629 70.4883 694.629C71.8477 694.629 73.0195 694.863 74.0039 695.332C75 695.801 75.8145 696.457 76.4473 697.301C77.0801 698.133 77.5488 699.117 77.8535 700.254C78.1582 701.379 78.3105 702.609 78.3105 703.945V705.404H64.1074V702.75H75.0586V702.504C75.0117 701.66 74.8359 700.84 74.5312 700.043C74.2383 699.246 73.7695 698.59 73.125 698.074C72.4805 697.559 71.6016 697.301 70.4883 697.301C69.75 697.301 69.0703 697.459 68.4492 697.775C67.8281 698.08 67.2949 698.537 66.8496 699.146C66.4043 699.756 66.0586 700.5 65.8125 701.379C65.5664 702.258 65.4434 703.271 65.4434 704.42V705.158C65.4434 706.061 65.5664 706.91 65.8125 707.707C66.0703 708.492 66.4395 709.184 66.9199 709.781C67.4121 710.379 68.0039 710.848 68.6953 711.188C69.3984 711.527 70.1953 711.697 71.0859 711.697C72.2344 711.697 73.207 711.463 74.0039 710.994C74.8008 710.525 75.498 709.898 76.0957 709.113L78.0645 710.678C77.6543 711.299 77.1328 711.891 76.5 712.453C75.8672 713.016 75.0879 713.473 74.1621 713.824C73.248 714.176 72.1641 714.352 70.9102 714.352Z" fill="white"/>
<path d="M237.656 357.282C231.055 375.428 268.462 412.534 287.99 428.819C287.99 434.635 286.835 447.663 282.215 453.246C276.439 460.225 291.291 465.459 291.291 478.545C291.291 491.631 269.012 650.408 254.985 660.876C240.958 671.345 257.46 677.452 262.411 679.197C267.362 680.942 262.411 693.155 264.061 699.262C265.712 705.369 279.739 695.772 283.865 703.624C287.99 711.476 300.368 708.858 305.318 709.731C310.269 710.603 299.542 728.923 314.395 724.561C329.247 720.199 344.1 730.668 347.4 734.158C350.701 737.647 373.805 732.413 384.532 735.903C393.113 738.694 390.858 729.505 388.657 724.561C396.084 721.072 410.111 728.051 413.412 734.158C416.052 739.043 426.064 737.357 430.739 735.903C432.72 741.486 446.417 743.463 453.018 743.754C465.395 773.416 469.521 761.202 474.472 762.947C479.423 764.692 484.373 754.223 489.324 759.457C494.275 764.692 500.051 765.564 514.904 759.457C526.786 754.572 534.707 755.095 537.182 755.968C527.281 721.072 538.007 683.559 555.335 683.559C572.663 683.559 566.062 656.514 582.565 662.621C599.068 668.728 618.046 664.366 624.647 671.345C631.248 678.324 662.603 668.728 664.254 677.452C665.904 686.176 669.204 689.666 679.931 691.41C690.658 693.155 704.685 701.879 713.762 698.39C721.023 695.598 736.041 694.9 742.642 694.9C755.019 673.962 778.948 638.194 788.024 639.067C795.286 639.764 797.651 627.725 797.926 621.619C814.429 606.264 807.003 598.936 801.227 597.191C766.241 607.66 758.594 581.779 759.144 567.53C766.406 551.478 763.82 542.812 761.62 540.486C745.117 542.579 742.092 527.4 742.642 519.548C772.347 518.85 770.971 496.575 766.571 485.525C736.866 467.379 748.143 452.373 757.494 447.139C736.041 422.712 766.571 406.136 738.516 402.647C716.072 399.855 713.762 410.789 715.412 416.605C713.212 415.733 708.646 409.452 707.986 391.306C707.161 368.623 760.795 342.451 752.543 329.365C744.292 316.279 750.893 314.535 755.844 314.535C760.795 314.535 771.522 325.876 782.248 314.535C792.975 303.194 781.423 256.084 784.724 231.657C788.024 207.23 812.778 194.144 807.003 179.313C801.227 164.482 783.899 181.93 775.647 168.844C767.396 155.758 762.445 166.227 752.543 168.844C744.622 170.938 737.691 161.574 735.215 156.631C732.19 159.248 725.644 162.563 723.664 154.886C721.683 147.209 709.086 141.218 703.035 139.183C630.423 134.297 621.621 102.251 626.297 86.8389C615.735 83.3494 610.895 95.8537 609.794 102.542C604.844 103.705 593.622 101.67 588.341 84.2218C583.06 66.7738 571.838 65.3198 566.887 66.7738C566.227 50.0238 551.76 51.6522 544.608 54.5602C546.259 23.1539 529.756 37.1124 520.68 37.1124C513.418 37.1124 507.202 13.8485 505.002 2.21653C473.977 -0.575139 452.468 24.3173 445.592 37.1124C440.641 96.4355 456.319 87.7115 402.685 109.521C349.051 131.331 377.105 135.693 376.28 147.035C375.62 156.107 356.752 159.539 347.4 160.12C348.501 157.503 345.42 151.571 324.297 148.779C297.892 145.29 302.018 133.949 300.368 126.097C299.047 119.816 273.963 116.501 261.586 115.628V129.587C272.588 159.83 290.631 219.095 274.788 214.209C258.946 209.324 247.284 209.266 243.433 209.847C234.081 214.791 213.563 220.665 206.302 204.613C197.225 184.548 189.799 194.144 172.471 190.654C155.143 187.165 141.941 201.996 114.711 201.996C92.9276 201.996 95.7331 218.862 99.8588 227.295L124.613 242.998C113.336 244.161 94.4126 249.105 108.935 259.574C123.457 270.043 127.088 277.312 127.088 279.639C172.471 269.17 170.82 296.215 187.323 305.811C203.826 315.407 221.979 283.129 220.329 310.173C219.008 331.808 226.93 336.636 231.055 336.345C236.006 335.763 244.258 339.136 237.656 357.282Z" stroke="url(#paint0_linear_338_74)" stroke-width="4"/>
<path d="M115 572L142.8 579.776L135.635 551.812L115 572ZM324.615 332.026L307.026 342.385L317.385 359.974L334.974 349.615L324.615 332.026ZM137.582 568.788C194.966 549.655 286.931 487.694 323.42 346.626L318.58 345.374C282.558 484.635 191.946 545.391 136.001 564.044L137.582 568.788Z" fill="white"/>
<defs>
<linearGradient id="paint0_linear_338_74" x1="262.853" y1="323.915" x2="763.106" y2="197.374" gradientUnits="userSpaceOnUse">
<stop stop-color="white"/>
<stop offset="0.865111" stop-color="white" stop-opacity="0"/>
</linearGradient>
</defs>
</svg>
