<svg width="1792" height="210" viewBox="0 0 1792 210" fill="none" xmlns="http://www.w3.org/2000/svg">
<path d="M1783.24 132.348C1785.15 133.921 1785.45 134.814 1785.5 135C1785.45 135.186 1785.15 136.079 1783.24 137.652C1780.91 139.574 1777.04 141.765 1771.34 144.099C1759.99 148.742 1742.87 153.356 1720.33 157.817C1675.34 166.72 1610.02 174.776 1529.03 181.556C1367.11 195.109 1143.3 203.5 896 203.5C648.698 203.5 424.887 195.109 262.975 181.556C181.984 174.776 116.658 166.72 71.674 157.817C49.1302 153.356 32.0145 148.742 20.6645 144.099C14.9583 141.765 11.0918 139.574 8.76015 137.652C6.85077 136.079 6.5481 135.186 6.50483 135C6.5481 134.814 6.85077 133.921 8.76015 132.348C11.0918 130.426 14.9583 128.235 20.6645 125.901C32.0145 121.258 49.1302 116.644 71.674 112.183C116.658 103.28 181.984 95.2237 262.975 88.4443C424.887 74.8914 648.698 66.5 896 66.5C1143.3 66.5 1367.11 74.8914 1529.03 88.4443C1610.02 95.2237 1675.34 103.28 1720.33 112.183C1742.87 116.644 1759.99 121.258 1771.34 125.901C1777.04 128.235 1780.91 130.426 1783.24 132.348ZM6.49815 134.963C6.49825 134.963 6.49864 134.966 6.49904 134.971C6.49825 134.966 6.49805 134.963 6.49815 134.963ZM6.49815 135.037C6.49805 135.037 6.49825 135.034 6.49904 135.029C6.49864 135.034 6.49825 135.037 6.49815 135.037Z" fill="url(#paint0_linear_253_76)" stroke="url(#paint1_linear_253_76)" stroke-width="13"/>
<path d="M1783.24 72.3475C1785.15 73.9211 1785.45 74.8136 1785.5 75C1785.45 75.1861 1785.15 76.0786 1783.24 77.6525C1780.91 79.5743 1777.04 81.7648 1771.34 84.099C1759.99 88.7418 1742.87 93.3556 1720.33 97.817C1675.34 106.72 1610.02 114.776 1529.03 121.556C1367.11 135.109 1143.3 143.5 896 143.5C648.698 143.5 424.887 135.109 262.975 121.556C181.984 114.776 116.658 106.72 71.674 97.817C49.1302 93.3556 32.0145 88.7418 20.6645 84.099C14.9583 81.7648 11.0918 79.5743 8.76015 77.6525C6.85077 76.0787 6.5481 75.1862 6.50483 75C6.5481 74.8138 6.85077 73.9213 8.76015 72.3475C11.0918 70.4257 14.9583 68.2352 20.6645 65.901C32.0145 61.2582 49.1302 56.6444 71.674 52.1829C116.658 43.2805 181.984 35.2237 262.975 28.4443C424.887 14.8914 648.698 6.5 896 6.5C1143.3 6.5 1367.11 14.8914 1529.03 28.4443C1610.02 35.2237 1675.34 43.2805 1720.33 52.1829C1742.87 56.6444 1759.99 61.2582 1771.34 65.901C1777.04 68.2352 1780.91 70.4257 1783.24 72.3475ZM6.49815 74.9632C6.49825 74.9632 6.49864 74.9658 6.49904 74.9709C6.49825 74.9658 6.49805 74.9632 6.49815 74.9632ZM6.49815 75.0368C6.49805 75.0368 6.49825 75.0342 6.49904 75.0291C6.49864 75.0342 6.49825 75.0368 6.49815 75.0368Z" fill="url(#paint2_linear_253_76)" stroke="url(#paint3_linear_253_76)" stroke-width="13"/>
<defs>
<linearGradient id="paint0_linear_253_76" x1="896" y1="60" x2="896" y2="210" gradientUnits="userSpaceOnUse">
<stop stop-opacity="0"/>
<stop offset="1" stop-color="#232323"/>
</linearGradient>
<linearGradient id="paint1_linear_253_76" x1="896" y1="60" x2="896" y2="210" gradientUnits="userSpaceOnUse">
<stop stop-opacity="0"/>
<stop offset="1" stop-color="#D7D7D7"/>
</linearGradient>
<linearGradient id="paint2_linear_253_76" x1="896" y1="0" x2="896" y2="150" gradientUnits="userSpaceOnUse">
<stop stop-opacity="0"/>
<stop offset="1" stop-color="#232323"/>
</linearGradient>
<linearGradient id="paint3_linear_253_76" x1="896" y1="0" x2="896" y2="150" gradientUnits="userSpaceOnUse">
<stop stop-opacity="0"/>
<stop offset="1" stop-color="#D7D7D7"/>
</linearGradient>
</defs>
</svg>
