<svg width="83" height="83" viewBox="0 0 83 83" fill="none" xmlns="http://www.w3.org/2000/svg">
<circle cx="41.5" cy="41.5" r="41.5" fill="#4CB55D"/>
<path d="M25.34 27.5106L24.203 26.5323L25.34 27.5106ZM39.4563 20L22.2133 18.3626L29.4168 34.1141L39.4563 20ZM47.6546 19.0413C46.8505 18.842 46.0371 19.3323 45.8378 20.1364C45.6385 20.9405 46.1288 21.7539 46.9329 21.9532L47.6546 19.0413ZM62.5 41.927C62.5 53.2939 53.3172 62.5 42 62.5V65.5C54.9834 65.5 65.5 54.9413 65.5 41.927H62.5ZM42 62.5C30.6828 62.5 21.5 53.2939 21.5 41.927H18.5C18.5 54.9413 29.0166 65.5 42 65.5V62.5ZM21.5 41.927C21.5 36.7887 23.3751 32.0942 26.4771 28.4889L24.203 26.5323C20.6497 30.6621 18.5 36.0449 18.5 41.927H21.5ZM26.4771 28.4889C27.013 27.866 27.5855 27.2757 28.1913 26.7214L26.1659 24.5083C25.4722 25.1431 24.8166 25.819 24.203 26.5323L26.4771 28.4889ZM46.9329 21.9532C55.8697 24.1681 62.5 32.27 62.5 41.927H65.5C65.5 30.865 57.9043 21.5816 47.6546 19.0413L46.9329 21.9532Z" fill="white"/>
</svg>
